<svg xmlns="http://www.w3.org/2000/svg" viewBox="0 0 664.27 596.86"><defs><style>.cls-1{fill:#121530;}</style></defs><title>Asset 4</title><g id="Layer_2" data-name="Layer 2"><g id="Layer_1-2" data-name="Layer 1"><path class="cls-1" d="M71.66,163a80.68,80.68,0,0,1-39,14.71c-10.26,1-23.35-1.82-23.8-13.8A17.52,17.52,0,0,1,13,152.28a372.23,372.23,0,0,1,31.59-33.9c6.2-5.88,12.68-11.6,20.16-15.75s15.43-6.54,23.45-9l40-12.14L143,82.57c-11.17,2.33-22.39-5.36-28.32-15.11-2.4-3.94-4.22-8.74-2.76-13.13,1-2.93,3.3-5.22,5.76-7.09,13.55-10.28,32-10.33,49-9.93,23.61.55,52.85.9,76.46,1.44l.21-.5a250.57,250.57,0,0,1-31.17-21.42c-2-1.59-4.1-3.49-2.85-6.7A6.77,6.77,0,0,1,212,7c12.33-8.13,28.25-5.92,42.33-2.14A230.53,230.53,0,0,1,355.8,63.06L352,57.28A314.88,314.88,0,0,1,385.2,46.82c31.22-8,65.16-11,95.05,1.1,7,2.84,14.83,8.51,13.57,16-.46,2.69-2.08,5-3.73,7.21a133.83,133.83,0,0,1-20.9,22l5.53-4.89c9.11-.44,17.81,3.83,25.31,9,14.43,10,26,23.45,37.38,36.78,4.14,4.85,8.3,9.73,11.51,15.24a53.56,53.56,0,0,1,6.77,33.89,12.3,12.3,0,0,1-2,5.37c-4,5.84-10.08,4-15.2,2.14l-20.07-7.35c-2.26-.83-4.66-1.77-6-3.78l10.83,7.62c25,35.86,24.59,83.24,19.22,126.59-1.33,10.76-3,21.72-8.51,31.18a9.36,9.36,0,0,1-6.82,4.68c-4.05.5-5.81-2.21-7.38-4.75L506.28,323l3,9.68q-9.8,20-18.37,40.54c-1.9,4.56-3.55,10.39-.11,13.93l-7.28-3.48c4.92-4.63,12.8-4.38,19.11-1.95,17.8,6.84,27.46,27,44.78,35,14.22,6.56,35.92.14,43.49-13.56l2.3,8.43c-6-14.9-.55-32.94,11.12-44,9.4-8.89,22-13.66,31.88-22a56.08,56.08,0,0,0,18-28.82c10,9.88,9.52,25.95,7.22,39.79-2.59,15.54-6.89,31.31-16.64,43.69s-26,20.66-41.36,17.17l.64.31a54,54,0,0,1-52.55,18.64c-.59-.13-1.29-.38-1.41-1s1.07-.91,1-.3l2.4,1a359.45,359.45,0,0,1-7.53,82c-2.68,12.8-6.06,25.44-9.89,37.95-4,13-8.67,26.25-18,36.14l-2.43.89c-6-.19-41.78,2.41-59.66,1.89a8,8,0,0,1-2.34-.39,7.16,7.16,0,0,1-4.85-4.84,10.61,10.61,0,0,1,.07-3.93l1.12-8v-.54a186.44,186.44,0,0,1-40.06-9c-2.06-.71-4.27-1.57-4-5.11a8.45,8.45,0,0,1,1.38-3.8,52.78,52.78,0,0,0,8.19-26.54l.52,2.59c-.43-4.29-5.83-5.8-10.12-6.22a550.35,550.35,0,0,0-57.13-2.53,30,30,0,0,1-10-1.61c-.29-.38-1.82-.87-2,0a426.87,426.87,0,0,0-8,59.69c-.12,1.78-.29,3.7-1.49,5-1.52,1.69-4.16,1.78-6.36,1.92-8.33.51-16.66,1-25,1.33-16.26.64-33.33,1.61-48.72-4.12a6.71,6.71,0,0,1-3.08-1.88,7,7,0,0,1-1-4.22,179.25,179.25,0,0,1,4.65-45.11l1,.43a46.55,46.55,0,0,1-20.56-9c-2.94-2.26-4.43-4.24-6.42-3.22l-.72.49a21.57,21.57,0,0,1-7.73,3.22L166,539.19c-6.55,1.32-14,2.47-19.38-1.42-3-2.12-4.78-5.41-6.53-8.59-8-14.64-16.23-29.94-17-46.61-.11-2.36,0-4.87,1.23-6.86,1.17-1.84,3.16-3,5.07-4,14.25-7.77,31.72-17,47.94-16.45l3.4.46c-.49-.64,1.3-.36.86.31s-1.49.39-2.21,0a335.5,335.5,0,0,1-47.1-29.32c-2-1.44-4.82-2.26-5.21-6.1l.3-19.46a119.22,119.22,0,0,1-4.49,37.19,6.13,6.13,0,0,1-1.73,2.9c-2.29,2.09-4.53.84-6.46-.34C92.24,427.19,69,412.67,55.18,390.31c-5.87-9.51-9.78-20.06-13.66-30.54-6.86-18.53-13.84-38.2-10.24-57.64l9.29-26.5A236.94,236.94,0,0,1,20.7,320.15a8.61,8.61,0,0,1-5.78,4.23c-5.5,1-8-3.87-9.32-8.17-7.46-23.71-4.08-49.76,4.59-73S32.52,198.84,46.07,178"/><path d="M70.9,161.74c-12.41,8.72-28.64,15.52-44.1,14.63-6.24-.36-13.74-2.54-15.86-9.17-3-9.48,5.88-17.37,11.5-23.74,11.22-12.73,23.28-26.12,37.24-35.9C74.16,97.41,92.85,93.8,109.52,88.74c6.91-2.1,14.68-6,22-5.49l11.57.82-.4-2.94c-8,1.35-15.56-2.13-21.23-7.66-5.06-4.94-11.55-14-6.77-21.11,4.26-6.3,13.41-9.72,20.45-11.44a93.9,93.9,0,0,1,21.14-2.21c28.94-.33,58,.88,87,1.54a1.55,1.55,0,0,0,1.45-1.1l.21-.5a1.5,1.5,0,0,0-.69-1.69,260,260,0,0,1-22.6-14.83c-2.84-2.09-13.73-8-9.56-13.19,2.43-3,8.67-4.5,12.19-5.2,15.86-3.14,33.27,3,48,8.35a230.42,230.42,0,0,1,82.53,52c1.19,1.16,3.31-.35,2.36-1.82l-3.76-5.78-.9,2.21c29.16-10.91,60.81-19.13,92.18-17.11a119.59,119.59,0,0,1,22.79,3.63c6.9,1.82,14.58,4,20.17,8.6,3.05,2.54,5.35,5.85,4.63,10-.77,4.4-4.84,8.48-7.64,11.8A140.59,140.59,0,0,1,468.13,92l2.12,2.12,3.45-3.05c2.48-2.19,3.71-1.63,7.37-1,7.78,1.43,14.78,5.76,21.05,10.41,12.84,9.51,23.33,21.75,33.66,33.83,11,12.82,19.51,26.19,18.84,43.73-.18,4.83-.87,11.5-6.67,12.7-3,.64-6.21-.63-9-1.63-4.27-1.51-8.52-3.12-12.77-4.68s-9.68-2.56-12.62-6.06l-1.82,2.36,7.78,5.47c4,2.82,6.06,6.84,8.43,11.16,6.85,12.46,11.09,26.2,13.47,40.19a211.54,211.54,0,0,1,2.39,43.48c-.56,14.93-1.7,30.27-4.66,44.94a67.57,67.57,0,0,1-3.5,12.1c-1.85,4.58-7,14-12.79,8.37-2.89-2.82-4.81-7.42-6.93-10.82l-8.32-13.41c-.88-1.4-3.27-.51-2.75,1.16.82,2.61,3,6.57,2.89,9.26-.11,2.11-2.88,5.78-3.92,8q-2.91,6.12-5.7,12.3c-3.15,7-6.45,14-9.13,21.16-1.82,4.84-2.63,9.84.78,14.12l1.82-2.36-7.28-3.48.3,2.35c11.34-9.47,26.8,2.7,35.05,10.62,7.64,7.35,14.61,15.73,23.94,21,15.89,9.05,39.24,3.48,48.63-12.51l-2.74-.36,2.29,8.44,2.89-.8a38,38,0,0,1,1.57-29.82c4.82-10.12,13.2-16.68,22.55-22.41,8.34-5.11,16.91-9.9,23.58-17.2a59.08,59.08,0,0,0,13.3-24.58l-2.51.66c7.49,7.86,8.69,18.79,7.94,29.18a124.77,124.77,0,0,1-6.74,32.18c-7.37,20.9-26.18,41.7-50.52,36.78-1.56-.31-2.78,2-1.16,2.74l.64.31-.3-2.35a52.6,52.6,0,0,1-23.71,16.48,53.21,53.21,0,0,1-13.95,2.77c-3.11.18-12.1,1-14.18-1.59l.23,1.82c-.61,1.32-2-.76-.49.46a9.42,9.42,0,0,0,2.21.91l-1.1-1.45a375.36,375.36,0,0,1-15.49,113.27c-2.49,8.5-5,17.06-8.72,25.13a71.09,71.09,0,0,1-5.48,9.93c-1.75,2.62-3.85,6.6-7.22,7.12-3.65.56-7.68.24-11.37.42-6.28.31-12.55.63-18.82.9-7.44.33-14.89.61-22.34.65-4.66,0-10.86.78-12.41-5.1-.85-3.22,1.27-7.79,1.36-11.15a1.53,1.53,0,0,0-1.5-1.5,192.42,192.42,0,0,1-20.79-3.54c-5.86-1.35-13.6-2.44-18.87-5.4-4.74-2.66-1.74-6.36.09-9.73a54.59,54.59,0,0,0,3.09-6.73,56.9,56.9,0,0,0,3.52-17.54l-2.95.4.52,2.59,2.89-.8c-1.1-5.14-6.33-6.66-11-7.25-9.95-1.25-20.09-1.69-30.11-2.12-10.18-.43-20.67.39-30.8-.61a31.12,31.12,0,0,1-5.9-1.33,5.65,5.65,0,0,0-2.39-.62c-2.68.49-2.53,4.27-2.94,6.32q-2.66,13.53-4.38,27.21-.87,6.93-1.54,13.89c-.45,4.77.1,10.83-1.3,15.4-1.74,5.67-11.06,4.6-15.82,4.87q-7.69.43-15.39.76c-9.1.37-18.23.81-27.33.17a79.33,79.33,0,0,1-16.83-2.86,18.23,18.23,0,0,1-2.51-.78c-2.91-1.38-4.33-4-4.7-7.15a51.7,51.7,0,0,1,0-7.57,182,182,0,0,1,4.58-35.24L247,539l1,.43,1.16-2.74A48.34,48.34,0,0,1,227.94,527c-3.76-3-5.06-3.2-9-1-7.11,3.94-17,4.41-24.89,6l-24.65,5c-7.85,1.58-17.7,4.38-24-2.35-5-5.4-8.35-14-11.55-20.55-3.7-7.61-6.92-15.6-8.4-24-.69-3.9-1.83-9.19,0-12.88,1.75-3.53,6.45-5.2,9.79-7,13.52-7.2,29.3-15.23,45.07-13.08a1.56,1.56,0,0,0,1.85-1.05l.1-.35-1.85,1-.29-.38,1.05-1.84c-1.73.69-6.11-2.48-7.6-3.29q-3.26-1.76-6.48-3.6-6.44-3.66-12.7-7.61c-7.67-4.84-16.07-9.76-23-15.68-4-3.44-2.83-7.64-2.76-12.54l.17-10.7h-3A120.93,120.93,0,0,1,123,431.58c-.39,1.72-.63,4.84-1.62,6.38-3,4.67-6,1.66-8.74,0-3.68-2.27-7.36-4.54-11-6.88-14.27-9.18-28.26-19.36-39-32.69-11.89-14.82-18.15-33.52-24.15-51.31-4.79-14.21-10.16-32.16-5-46.94L42,276l-2.89-.8A239.42,239.42,0,0,1,29,300.94c-2.44,5.24-9.93,25.75-17.87,21.44-3.23-1.75-4.21-6.78-5.07-10A89.36,89.36,0,0,1,3.54,299a106.46,106.46,0,0,1,.35-24.72c4.52-35.47,24.41-66.15,43.47-95.46,1.06-1.63-1.54-3.13-2.59-1.52-17.55,27-35.64,54.89-42.21,86.91-3.08,15-3.64,30.63-.25,45.61,1.07,4.74,2.23,11.19,6.26,14.46,3.37,2.72,8.2,2.08,11.32-.73,2.77-2.5,4.32-6.47,6.05-9.71q3.18-6,6-12.16A247.49,247.49,0,0,0,42,276c.61-1.84-2.26-2.61-2.89-.8-2.87,8.21-5.91,16.37-8.62,24.63-5.38,16.38.94,36,6.39,51.54,6.49,18.5,13.19,37.16,26.26,52.14,12.47,14.31,28.54,24.94,44.56,34.86,6.07,3.77,13.82,9.41,16.83-.55,3.56-11.76,4.65-24.46,4.29-36.68a1.5,1.5,0,0,0-3,0l-.21,13.53c-.07,4.33-.74,8.47,3.07,11.47a283.82,283.82,0,0,0,26.52,18q7.48,4.62,15.2,8.85c2.94,1.62,8,5.89,11.54,4.48a1.55,1.55,0,0,0,1-1.85l-.13-.52a1.5,1.5,0,0,0-1.05-1.05l-.62-.14a1.53,1.53,0,0,0-1.85,1.05l-.1.35,1.85-1.05c-14.16-1.92-28,3.67-40.49,9.84C136.79,466,133,468,129.31,470c-2.58,1.41-5.23,2.84-6.63,5.55-3.08,5.92-.42,15.38,1.23,21.36,2.34,8.48,6.11,16.51,10.17,24.29,3.28,6.29,6.5,15,13,18.64,6.15,3.43,13.68,1.88,20.19.58q14.7-2.94,29.39-5.92c5.37-1.09,10.76-2.1,16.12-3.25a27.89,27.89,0,0,0,6.1-1.92c1.76-.83,3-2.38,5-1.75,1.48.46,4.11,3.29,5.53,4.26a46.37,46.37,0,0,0,6.29,3.65,50.84,50.84,0,0,0,12.66,4.06c1.54.29,2.83-2,1.16-2.74l-1-.43a1.53,1.53,0,0,0-2.21.9,187,187,0,0,0-4.36,29.4c-.33,5-.5,10.1-.35,15.15.07,2.8.24,5.49,2.68,7.28,2.92,2.16,7.49,2.91,10.94,3.69a89.63,89.63,0,0,0,12.53,1.81c9.7.75,19.46.25,29.17-.15,5.13-.21,10.25-.48,15.38-.77,4.13-.24,9.19.24,13.15-1.13,6.57-2.26,5.12-12,5.59-17.39.92-10.7,2.18-21.38,3.9-32,.81-5,1.49-10,2.71-14.91.6-2.39,0-1.68,2-1.41s3.91.94,5.93,1.13c11.45,1.06,23.24.22,34.74.79q9.36.46,18.7,1.25c4.55.39,14.29-.16,15.55,5.74.4,1.89,3.27,1.08,2.89-.8l-.52-2.59c-.34-1.72-2.87-1.22-2.94.4-.48,9.67-3.61,17.32-8,25.78-1.65,3.18-2.69,7.24.6,9.77,2,1.54,5,2.07,7.32,2.81,3.86,1.22,7.77,2.32,11.7,3.28a196.49,196.49,0,0,0,24.32,4.3l-1.5-1.5c-.16,5.76-3.76,12.94,1.86,17.22,4.8,3.65,13.42,2,19,1.92,13.94-.32,27.85-1.27,41.78-1.77,4.48-.16,7-.13,10.12-3.85,5.38-6.48,9.09-14.1,12.06-21.93,7.28-19.17,12.24-39.65,15.9-59.8a366.35,366.35,0,0,0,5.74-73,1.58,1.58,0,0,0-1.1-1.45,6.16,6.16,0,0,1-2-.91,1.47,1.47,0,0,0-1.46-.39,2.1,2.1,0,0,0-1.65,1.32,1.59,1.59,0,0,0,.24,1.81c2.27,2.86,9.33,2.53,12.65,2.56a55.81,55.81,0,0,0,43.43-20.22,1.53,1.53,0,0,0-.3-2.36l-.64-.31L603,418.88c24.64,5,44.63-14.38,53-35.71a122.83,122.83,0,0,0,8.09-36.89c.68-11-1-22.3-8.88-30.55a1.51,1.51,0,0,0-2.51.67,55.4,55.4,0,0,1-17.6,28.14c-8.63,7.3-19.21,11.76-28.06,18.75-14.41,11.37-22,31-15.33,48.71.67,1.77,3.41,1.1,2.89-.8l-2.29-8.43a1.52,1.52,0,0,0-2.74-.36c-5.6,9.53-16.78,14.78-27.58,15.36-12.11.64-21.4-5.95-29.76-14-11.38-11-32.25-35.78-49.81-21.11a1.51,1.51,0,0,0,.3,2.36l7.28,3.48a1.51,1.51,0,0,0,1.82-2.36c-4.71-5.89,2.5-17.28,4.9-22.79q4.64-10.65,9.62-21.15c1.7-3.6,5-7.37,3.88-11.38-.74-2.75-1.7-5.45-2.54-8.17L505,323.8c4.88,7.84,9.22,16.78,15,24,3.33,4.13,8.71,4.26,12.74.88,5.51-4.62,7.7-14.26,9.11-21a236.39,236.39,0,0,0,3.44-25.29c3.21-32.44,3-66.82-10.24-97.21-2.74-6.29-6.14-14.91-11.3-19.56-3.11-2.82-7.09-5-10.52-7.41-1.49-1.05-2.84,1.13-1.82,2.35,4.33,5.16,13.35,6.62,19.41,8.84,5.27,1.93,11.53,5.34,17.33,4.39,12.86-2.11,10.06-22.25,7.86-31-3.71-14.83-14.06-25.93-23.84-37.16-10.17-11.68-21-23.29-34.25-31.57-6.42-4-13.8-7.29-21.49-7.36-3.57,0-5.75,3.1-8.3,5.36-1.46,1.28.66,3.35,2.12,2.12a138.58,138.58,0,0,0,19.81-20.56c3.55-4.55,6.86-9.51,4.57-15.41-2.23-5.72-8.25-9.3-13.62-11.55A105.26,105.26,0,0,0,457.15,40c-35.5-5.7-72.38,3.43-105.51,15.81a1.53,1.53,0,0,0-.89,2.21l3.76,5.78L356.86,62a233.76,233.76,0,0,0-73.77-48.88C269.61,7.52,255.22,2.45,240.67.57c-6.75-.88-13.77-.89-20.36,1-4.64,1.35-12.07,4-12.74,9.63s7.26,9.6,11,12.41a257.62,257.62,0,0,0,24,15.91l-.69-1.7-.21.51,1.45-1.11c-18.7-.42-37.41-.69-56.11-1-16.64-.3-34-2.07-50.46,1.3C124.49,40,105.34,48.15,111.17,63.68c4.76,12.69,18.56,22.67,32.26,20.34,1.76-.3,1.19-2.83-.39-3l-12.36-.88c-6.92-.49-14.45,3.38-21,5.37-18.54,5.63-38.89,9.63-54.56,21.66C39.26,119.37,25,135,12.49,150.51c-8.47,10.52-5.7,24.48,8,28,17.31,4.37,38-4.36,51.91-14.13,1.56-1.1.07-3.71-1.52-2.59Z"/></g></g></svg>