<svg xmlns="http://www.w3.org/2000/svg" viewBox="0 0 516.64 184.28"><defs><style>.cls-1,.cls-2{fill:#121530;}.cls-2{stroke:#000;stroke-miterlimit:10;}</style></defs><title>Asset 5</title><g id="Layer_2" data-name="Layer 2"><g id="Layer_1-2" data-name="Layer 1"><path class="cls-1" d="M125.84,179.74c-12.65-8.15-11.57-24.89-7.3-38.05a142.46,142.46,0,0,1,49.64-69.95c24.12-18.12,55.71-29,87.6-28.15,14.31.38,28.44,3,42.26,6.4a369.44,369.44,0,0,1,181.47,105.8c4,4.27,18.38,17.41,16.17,22.56-2.31,5.41-342.81,5.8-370,1.34"/><path d="M126.6,178.44c-18.39-12.66-6.24-40.65,1.44-56a139.93,139.93,0,0,1,42.19-50.33,141.7,141.7,0,0,1,62.2-25.54c24.48-3.69,48.81.48,72.5,6.76a368.19,368.19,0,0,1,167,96.78c5.45,5.51,11.07,11,16.19,16.84a33.11,33.11,0,0,1,6,8.68c.14.33.35,2.23.68,1.62-.12.22.19-.21-.19.07-2,1.43-7.33.93-9.6,1.08-6.53.44-13.08.7-19.62.93-20.69.72-41.4,1.05-62.1,1.32q-80.34,1.06-160.68.48c-37.21-.23-74.88.58-112-2.38-1.5-.12-3.08-.24-4.5-.47-1.88-.3-2.7,2.59-.79,2.89,11.76,1.89,24.12,1.55,36,1.85,23.07.6,46.14.85,69.2,1q85,.67,170-.35c21.83-.28,43.66-.61,65.47-1.39,6.77-.24,13.55-.5,20.31-1,2.71-.2,7,.11,9.47-1.22,7.64-4.1-10.39-20.48-13.06-23.18-14.56-14.72-29.23-28.94-45.65-41.62A371.53,371.53,0,0,0,317.73,53.8C294.48,46.77,270,41,245.55,42.22A144,144,0,0,0,181,61.46a141.26,141.26,0,0,0-47,44.5A146.41,146.41,0,0,0,119.67,134c-3.33,8.65-6.16,17.89-5.45,27.27.62,8.13,4.09,15.07,10.86,19.73,1.59,1.1,3.1-1.5,1.52-2.59Z"/><circle class="cls-2" cx="409.13" cy="57.5" r="57"/><path class="cls-1" d="M130.59,166.05c-13.85.65-28.69-7.39-35.3-19.7-4.06-7.57-2.84-16.52-1.28-24.62,1.84-9.47,4.43-19,4.18-28.76A63,63,0,0,0,77.61,48.62C64.39,36.69,44.35,29.13,27,36.28,5.5,45.18,1.13,69.76,0,90.42c-.52,9.64,14.48,9.61,15,0,.81-14.86,3.06-37.14,20.82-41.31,15.24-3.59,31.43,7.39,39.42,19.63a48.36,48.36,0,0,1,7.64,19.89c1.15,8.64-.89,17.19-2.63,25.6-3.46,16.75-4.44,32.7,6.86,46.65,10.22,12.61,27.14,20.94,43.47,20.17,9.61-.46,9.67-15.46,0-15Z"/><path class="cls-1" d="M493.8,176.82a42.89,42.89,0,0,0,9.53,1.82c6.17.18,13.45-4.52,11.51-10.84a8.17,8.17,0,0,0-8.71-5.46c-4.71.43-8.11,3.2-10.8,6.66"/><path d="M493.4,178.27c5.59,1.47,11.37,3,16.85.34,3.81-1.85,7-5.5,6.31-10a9.44,9.44,0,0,0-8.73-7.77c-5.57-.47-10.22,3-13.56,7.07-1.21,1.48.9,3.62,2.12,2.12,2.06-2.54,4.46-4.89,7.69-5.81,4.29-1.22,10.27.92,9.47,6.34-1.32,8.91-13.89,6.22-19.35,4.78a1.51,1.51,0,0,0-.8,2.9Z"/></g></g></svg>